<?xml version="1.0" encoding="utf-8"?>
<!-- Generator: Adobe Illustrator 21.1.0, SVG Export Plug-In . SVG Version: 6.00 Build 0)  -->
<svg version="1.1" xmlns="http://www.w3.org/2000/svg" xmlns:xlink="http://www.w3.org/1999/xlink" x="0px" y="0px"
	 viewBox="0 0 255.8 256.3" style="enable-background:new 0 0 255.8 256.3;" xml:space="preserve">
<style type="text/css">
	.st0{fill:#FFFFFF;}
	.st1{display:none;}
	.st2{display:inline;}
	.st3{fill:none;stroke:#000000;stroke-width:9;stroke-linecap:round;stroke-miterlimit:10;}
</style>
<g id="Layer_1">
	<g>
		<polygon class="st0" points="42.6,207 68.2,207 68.2,197.8 42.6,197.8 42.6,188.3 77.2,188.3 77.2,179.1 32.5,179.1 32.5,226 
			77.5,226 77.5,216.8 42.6,216.8 		"/>
		<path class="st0" d="M50.1,104.5l-19.8,47.3h10.4l4.2-10.5h19.6l4.2,10.5h10.7l-19.9-47.3H50.1z M48.6,132.1l6.1-15.2l6.2,15.2
			H48.6z"/>
		<polygon class="st0" points="49.8,77.3 59.9,77.3 59.9,39.9 78.4,39.9 78.4,30.4 31.4,30.4 31.4,39.9 49.8,39.9 		"/>
		<path class="st0" d="M151.7,194.7v-0.1c0-9.7-6.5-15.5-17.4-15.5h-28.2V226h10.2v-15h15l9.9,15v0.1h11.9l-11.3-16.8
			C147.7,207,151.7,202.3,151.7,194.7z M141.4,195.3c0,3.9-2.8,6.6-7.8,6.6h-17.3v-13.5h17.1c5,0,8,2.3,8,6.7V195.3z"/>
		<polygon class="st0" points="116.3,58.5 140.3,58.5 140.3,77.3 150.5,77.3 150.5,30.4 140.3,30.4 140.3,49 116.3,49 116.3,30.4 
			106.1,30.4 106.1,77.3 116.3,77.3 		"/>
		<polygon class="st0" points="199.5,197.9 188.5,179.1 176.6,179.1 194.4,207.5 194.4,226 204.5,226 204.5,207.3 222.3,179.1 
			210.7,179.1 		"/>
		<polygon class="st0" points="188.5,68.2 188.5,58.3 214.1,58.3 214.1,49.1 188.5,49.1 188.5,39.6 223.1,39.6 223.1,30.4 
			178.4,30.4 178.4,77.4 223.4,77.4 223.4,68.2 		"/>
		<polygon class="st0" points="177.5,114.4 194.8,114.4 194.8,151.8 205,151.8 205,114.4 222.8,114.4 222.8,104.9 177.5,104.9 		"/>
		<path class="st0" d="M151.7,120.5L151.7,120.5c0-9.8-6.5-15.6-17.4-15.6h-28.2v46.9h10.2v-15h15l9.9,15h11.9L141.8,135
			C147.7,132.8,151.7,128.1,151.7,120.5z M141.4,121.1c0,3.9-2.8,6.6-7.8,6.6h-17.3v-13.5h17.1C138.4,114.2,141.4,116.4,141.4,121.1
			L141.4,121.1z"/>
	</g>
	<g>
		<path class="st0" d="M249.8,6v243.8H6V6H249.8 M255.8,0H0v255.8h255.8V0L255.8,0z"/>
	</g>
</g>
<g id="Layer_2" class="st1">
	<g class="st2">
		<line class="st3" x1="7.6" y1="6.8" x2="249.8" y2="249"/>
		<line class="st3" x1="249.8" y1="6.8" x2="7.6" y2="249"/>
	</g>
</g>
</svg>
