<svg width="92" height="18" viewBox="0 0 92 18" fill="none" xmlns="http://www.w3.org/2000/svg">
<g clip-path="url(#clip0_1192_134638)">
<path d="M5.17033 7.1429C5.76882 6.76782 6.46398 6.57003 7.17317 6.57305C8.11121 6.56225 9.01758 6.90724 9.70485 7.53667C10.3188 8.08645 10.7542 8.80274 10.9566 9.59564H14.1634C13.9897 8.63247 13.6058 7.71801 13.0382 6.91552C12.3861 5.98741 11.518 5.22673 10.5066 4.6971C9.48279 4.15268 8.33637 3.87134 7.17317 3.87906C5.91453 3.87152 4.6769 4.19712 3.58943 4.82189C2.50417 5.43338 1.60029 6.31438 0.967731 7.37722C0.333958 8.448 0 9.66548 0 10.9052C0 12.1449 0.333958 13.3624 0.967731 14.4332C1.59737 15.5028 2.49906 16.3922 3.5838 17.0135C4.67029 17.6469 5.9109 17.9776 7.17317 17.9702C8.30392 17.9779 9.41924 17.7112 10.4208 17.1937C11.4101 16.6858 12.2666 15.9587 12.9229 15.0696C13.4894 14.3089 13.8911 13.4414 14.103 12.5212H10.8807C10.6404 13.2477 10.1991 13.8936 9.6064 14.386C8.99963 14.9021 8.24 15.2111 7.44065 15.267C6.64129 15.323 5.84498 15.1229 5.17033 14.6966C4.55025 14.3056 4.04341 13.7629 3.69914 13.1215C3.33003 12.4394 3.14228 11.6762 3.15342 10.9031C3.14449 10.1378 3.33223 9.38276 3.69914 8.70827C4.04138 8.06804 4.54883 7.52809 5.17033 7.1429Z" fill="white"/>
<path d="M41.631 4.74982C40.5624 4.1666 39.3587 3.86665 38.1374 3.87929C36.9161 3.89193 35.719 4.21672 34.6632 4.82192C33.5791 5.43395 32.6762 6.31488 32.0443 7.37726C31.4115 8.44836 31.0781 9.66571 31.0781 10.9052C31.0781 12.1447 31.4115 13.3621 32.0443 14.4332C32.6745 15.5029 33.5766 16.3923 34.6618 17.0135C35.6529 17.5822 36.7687 17.9064 37.9143 17.9586C39.0599 18.0107 40.2013 17.7892 41.2414 17.313C42.1652 16.8846 42.9856 16.2668 43.6479 15.5008C44.2107 14.8572 44.6475 14.1163 44.9362 13.3157H41.5803C41.2839 13.8417 40.8679 14.293 40.3651 14.6342C39.7454 15.0567 39.0088 15.2809 38.2554 15.2762C37.3265 15.2802 36.43 14.9403 35.7434 14.3237C35.0117 13.6952 34.5187 12.84 34.3453 11.8987H45.316C45.3477 11.5961 45.3613 11.2919 45.3567 10.9877C45.3567 9.56424 45.0103 8.31407 44.3173 7.23722C43.6569 6.19159 42.7309 5.33415 41.631 4.74982ZM34.4578 9.41265C34.7125 8.59082 35.2239 7.86926 35.9192 7.35091C36.5828 6.84228 37.4007 6.56833 38.2413 6.57308C39.0712 6.56497 39.8791 6.83536 40.5325 7.33982C41.2125 7.86177 41.7118 8.57867 41.9615 9.39185L34.4578 9.41265Z" fill="white"/>
<path d="M25.7863 11.9834C25.7863 12.9502 25.4989 13.7271 24.9241 14.3141C24.3493 14.901 23.5926 15.1945 22.654 15.1945C21.7164 15.1945 20.9597 14.901 20.384 14.3141C19.8082 13.7271 19.5208 12.9502 19.5218 11.9834V4.10938H16.4739V11.9834C16.452 13.0575 16.7168 14.1185 17.2419 15.06C17.7484 15.9457 18.5041 16.668 19.4177 17.1398C20.4157 17.6514 21.528 17.9078 22.6526 17.8857C23.7772 17.9074 24.8894 17.651 25.8876 17.1398C26.8009 16.6676 27.5564 15.9454 28.0634 15.06C28.5884 14.1184 28.8536 13.0576 28.8328 11.9834V4.10938H25.7863V11.9834Z" fill="white"/>
<path d="M87.4422 14.3874C86.8356 14.9033 86.0763 15.2123 85.2771 15.2682C84.478 15.3242 83.682 15.1242 83.0075 14.698C82.3867 14.3073 81.8793 13.7646 81.5349 13.1229C81.1658 12.4407 80.9781 11.6775 80.9892 10.9045C80.98 10.1387 81.1678 9.38314 81.5349 8.70825C81.8772 8.06761 82.3853 7.52757 83.0075 7.14288C83.7023 6.71138 84.5213 6.51625 85.3393 6.58737C86.1573 6.65848 86.929 6.99193 87.5364 7.53665C88.1526 8.08587 88.5897 8.80288 88.7924 9.597H91.9992C91.8255 8.63384 91.4416 7.71937 90.874 6.91688C90.2219 5.98877 89.3538 5.22809 88.3423 4.69846C87.3191 4.15378 86.1732 3.87197 85.0104 3.87904C83.7517 3.8715 82.5141 4.1971 81.4266 4.82186C80.3406 5.43392 79.4358 6.31532 78.8021 7.37859C78.1693 8.44969 77.8359 9.66704 77.8359 10.9066C77.8359 12.1461 78.1693 13.3634 78.8021 14.4345C79.4327 15.504 80.3347 16.3932 81.4196 17.0148C82.5049 17.6459 83.7434 17.975 85.0033 17.9674C86.1341 17.9751 87.2494 17.7084 88.2509 17.1909C89.2405 16.6834 90.0971 15.9562 90.7531 15.0668C91.3196 14.3061 91.7213 13.4386 91.9331 12.5184H88.7165C88.4762 13.2449 88.0349 13.8908 87.4422 14.3832" fill="white"/>
<path d="M75.4893 4.10938H72.4414V17.5779H75.4893V4.10938Z" fill="white"/>
<path d="M64.7131 6.62662C64.1891 7.56848 63.9248 8.62931 63.9466 9.70329V17.5773H66.9944V9.70329C66.9944 8.73643 67.2818 7.95952 67.8566 7.37257C68.4314 6.78561 69.1881 6.49167 70.1267 6.49075V3.79815C69.0021 3.77645 67.8899 4.03291 66.8917 4.54409C65.9781 5.01586 65.2224 5.73816 64.7159 6.62385" fill="white"/>
<path d="M58.251 4.8337C57.3877 4.2883 56.3993 3.9654 55.3765 3.89466C54.3536 3.82392 53.3292 4.0076 52.3971 4.42884C51.5776 4.79857 50.9925 5.18911 50.6418 5.60044V1H47.594V10.9468C47.5843 12.179 47.8993 13.3924 48.5082 14.4686C49.097 15.5255 49.9606 16.4089 51.0103 17.028C52.0711 17.6576 53.2885 17.984 54.5266 17.9709C55.7853 17.9794 57.0232 17.6538 58.1103 17.028C59.1947 16.4151 60.0972 15.5326 60.7278 14.4686C61.3686 13.4031 61.7027 12.1855 61.694 10.9468C61.7056 9.70828 61.3828 8.48901 60.7587 7.41399C60.1583 6.35995 59.2977 5.47242 58.2566 4.8337M58.0048 13.143C57.6622 13.7826 57.1548 14.322 56.5336 14.707C55.9359 15.0792 55.2434 15.2768 54.5364 15.2768C53.8294 15.2768 53.1369 15.0792 52.5392 14.707C51.9181 14.322 51.4107 13.7826 51.068 13.143C50.7004 12.4683 50.5122 11.7127 50.5209 10.9468C50.5102 10.1737 50.6984 9.41042 51.068 8.7284C51.4119 8.08675 51.9188 7.54404 52.5392 7.15333C53.1343 6.77416 53.8278 6.57246 54.5364 6.57246C55.245 6.57246 55.9385 6.77416 56.5336 7.15333C57.154 7.54404 57.6609 8.08675 58.0048 8.7284C58.3739 9.41055 58.5617 10.1738 58.5505 10.9468C58.5597 11.7126 58.372 12.4682 58.0048 13.143Z" fill="white"/>
</g>
<defs>
<clipPath id="clip0_1192_134638">
<rect width="92" height="16.9709" fill="white" transform="translate(0 1)"/>
</clipPath>
</defs>
</svg>
